# AST/ASF file generated using VICON BodyLanguage
# -----------------------------------------------
:version 1.10
:name VICON
:units
  mass 1.0
  length 0.45
  angle deg
:documentation
   .ast/.asf automatically generated from VICON data using
   VICON BodyBuilder and BodyLanguage model FoxedUp or BRILLIANT.MOD
:root
   order TX TY TZ RX RY RZ
   axis XYZ
   position 0 0 0  
   orientation 0 0 0 
:bonedata
  begin
     id 1 
     name lhipjoint
     direction 0.522423 -0.726805 0.445902 
     length 2.25074 
     axis 0 0 0  XYZ
  end
  begin
     id 2 
     name lfemur
     direction 0.34202 -0.939693 0  
     length 6.54609  
     axis 0 0 20  XYZ
    dof rx ry rz
    limits (-160.0 20.0)
           (-70.0 70.0)
           (-60.0 70.0)
  end
  begin
     id 3 
     name ltibia
     direction 0.34202 -0.939693 0   
     length 7.7528   
     axis 0 0 20   XYZ
    dof rx
    limits (-10.0 170.0)
  end
  begin
     id 4 
     name lfoot
     direction 0.143696 -0.394801 0.90746   
     length 1.73269   
     axis -90 7.62852e-016 20   XYZ
    dof rx rz
    limits (-45.0 90.0)
           (-70.0 20.0)
  end
  begin
     id 5 
     name ltoes
     direction 1.53633e-011 -4.21912e-011 1   
     length 0.858383   
     axis -90 7.62852e-016 20   XYZ
    dof rx
    limits (-90.0 20.0)
  end
  begin
     id 6 
     name rhipjoint
     direction -0.515943 -0.73016 0.447961   
     length 2.2404  
     axis 0 0 0  XYZ 
  end
  begin
     id 7 
     name rfemur
     direction -0.34202 -0.939693 0   
     length 6.84377   
     axis 0 0 -20   XYZ
    dof rx ry rz
    limits (-160.0 20.0)
           (-70.0 70.0)
           (-70.0 60.0)
  end
  begin
     id 8 
     name rtibia
     direction -0.34202 -0.939693 0   
     length 7.57596   
     axis 0 0 -20   XYZ
    dof rx
    limits (-10.0 170.0)
 end
 begin
     id 9 
     name rfoot
     direction -0.0999372 -0.274575 0.956358   
     length 1.78783  
     axis -90 -7.62852e-016 -20   XYZ
    dof rx rz
    limits (-45.0 90.0)
           (-20.0 70.0)
  end
  begin
     id 10 
     name rtoes
     direction -1.53535e-011 -4.21895e-011 1   
     length 0.898614   
     axis -90 -7.62852e-016 -20   XYZ
    dof rx
    limits (-90.0 20.0)
  end
  begin
     id 11 
     name lowerback
     direction -0.011775 0.996164 -0.0867116   
     length 1.91499   
     axis 0 0 0   XYZ
    dof rx ry rz
    limits (-20.0 45.0)
           (-30.0 30.0)
           (-30.0 30.0)
  end
  begin
     id 12 
     name upperback
     direction -0.00189771 0.999673 -0.0254833   
     length 1.92213   
     axis 0 0 0   XYZ
    dof rx ry rz
    limits (-20.0 45.0)
           (-30.0 30.0)
           (-30.0 30.0)
  end
  begin
     id 13 
     name thorax
     direction 0.00335995 0.999878 0.0152401   
     length 1.93138   
     axis 0 0 0   XYZ
    dof rx ry rz
    limits (-20.0 45.0)
           (-30.0 30.0)
           (-30.0 30.0)
  end
  begin
     id 14 
     name lowerneck
     direction 0.00233191 0.998509 0.0545404   
     length 1.59408   
     axis 0 0 0   XYZ
    dof rx ry rz
    limits (-20.0 45.0)
           (-30.0 30.0)
           (-30.0 30.0)
  end
  begin
     id 15 
     name upperneck
     direction 0.07881 0.9956 -0.0506934   
     length 1.59344   
     axis 0 0 0   XYZ
    dof rx ry rz
    limits (-20.0 45.0)
           (-30.0 30.0)
           (-30.0 30.0)
  end
  begin
     id 16
     name head
     direction 0.0261681 0.999378 -0.0236299  
     length 1.60935  
     axis 0 0 0   XYZ
    dof rx ry rz
    limits (-20.0 45.0)
           (-30.0 30.0)
           (-30.0 30.0)
  end
  begin
     id 17 
     name lclavicle
     direction 0.96643 0.252035 0.0499195  
     length 3.82153  
     axis 0 0 0   XYZ
    dof ry rz
    limits (-20.0 10.0)
           (0.0 20.0)
  end
  begin
     id 18 
     name lhumerus
     direction 1 -4.48967e-011 -2.01614e-018   
     length 4.87796   
     axis 180 -30 -90   XYZ
    dof rx ry rz
    limits (-60.0 90.0)
           (-90.0 90.0)
           (-90.0 90.0)
  end
  begin
     id 19
     name lradius
     direction 1 -4.48958e-011 3.1409e-027   
     length 3.23169   
     axis 180 -30 -90   XYZ
    dof rx
    limits (-10.0 170.0)
  end
  begin
     id 20
     name lwrist
     direction 1 -4.48924e-011 1.0365e-027   
     length 1.61584   
     axis -2.56395e-016 90 90   XYZ
    dof ry
    limits (-180.0 0.0)
 end
  begin
     id 21 
     name lhand
     direction 1 -4.49055e-011 2.09488e-027   
     length 0.731324   
     axis -1.32723e-015 90 90   XYZ
    dof rx rz
    limits (-90.0 90.0)
           (-45.0 45.0)
  end
  begin
     id 22 
     name lfingers
     direction 1 -4.48935e-011 4.14981e-027   
     length 0.589612   
     axis -2.6545e-015 90 90   XYZ
    dof rx
    limits (0.0 90.0)
  end
  begin
     id 23
     name lthumb
     direction 0.707107 -6.35097e-011 0.707107   
     length 0.846569   
     axis -90 45 5.05613e-014   XYZ
    dof rx rz
    limits (-45.0 45.0)
           (-45.0 45.0)
  end
  begin
     id 24 
     name rclavicle
     direction -0.979337 0.201016 0.0221522   
     length 3.73827  
     axis 0 0 0   XYZ 
    dof ry rz
    limits (-10.0 20.0)
           (-20.0 0.0)
  end
  begin
     id 25 
     name rhumerus
     direction -1 -4.48971e-011 1.65907e-027  
     length 4.9143   
     axis 180 30 90   XYZ
    dof rx ry rz
    limits (-90.0 60.0)
           (-90.0 90.0)
           (-90.0 90.0)
  end
  begin
     id 26 
     name rradius
     direction -1 -4.4894e-011 2.17871e-028   
     length 3.29093   
     axis 180 30 90   XYZ
    dof rx
    limits (-10.0 170.0)
  end
  begin
     id 27 
     name rwrist
     direction -1 -4.48971e-011 1.04038e-027   
     length 1.64546   
     axis -2.56395e-016 -90 -90   XYZ
    dof ry
    limits (-180.0 0.0)
  end
  begin
     id 28
     name rhand
     direction -1 -4.49017e-011 2.08843e-027   
     length 0.54512   
     axis -1.32723e-015 -90 -90   XYZ
    dof rx rz
    limits (-90.0 90.0)
           (-45.0 45.0)
  end
  begin
     id 29
     name rfingers
     direction -1 -4.48918e-011 4.1439e-027   
     length 0.43949   
     axis -2.6545e-015 -90 -90   XYZ
    dof rx
    limits (0.0 90.0)
  end
  begin
     id 30
     name rthumb
     direction -0.707107 -6.35065e-011 0.707107   
     length 0.631022   
     axis -90 -45 -5.05613e-014   XYZ
    dof rx rz
    limits (-45.0 45.0)
           (-45.0 45.0)
  end
:hierarchy
  begin
    root lhipjoint rhipjoint lowerback
    lhipjoint lfemur
    lfemur ltibia
    ltibia lfoot
    lfoot ltoes
    rhipjoint rfemur
    rfemur rtibia
    rtibia rfoot
    rfoot rtoes
    lowerback upperback
    upperback thorax
    thorax lowerneck lclavicle rclavicle
    lowerneck upperneck
    upperneck head
    lclavicle lhumerus
    lhumerus lradius
    lradius lwrist
    lwrist lhand lthumb
    lhand lfingers
    rclavicle rhumerus
    rhumerus rradius
    rradius rwrist
    rwrist rhand rthumb
    rhand rfingers
  end

#!OML:ASF H:\BreakDance\Project 1\Capture day 1\Session 1\Male.ASF
:FULLY-SPECIFIED
:DEGREES
2672
root -3.46394 9.01074 -10.3237 912.862 -69.0138 -894.939
lowerback 32.1046 2.51404 -0.978156
upperback 12.8047 0.871746 -2.42312
thorax -2.94161 -0.245846 -2.38549
lowerneck -11.7222 5.36725 6.99197
upperneck 5.522 6.42519 -3.98964
head 3.89692 3.12663 -1.8954
rclavicle -3.49861e-014 -5.36719e-014
rhumerus -8.30204 -34.3234 -71.1126
rradius 18.545
rwrist -0.16729
rhand -22.6106 -393.653
rfingers 7.12502
rthumb 3.81911 296.401
lclavicle -3.49861e-014 -5.36719e-014
lhumerus 63.013 6.72062 12.8995
lradius 54.3034
lwrist 16.1911
lhand -24.7473 -24.0221
lfingers 7.12502
lthumb 1.75566 5.9504
rfemur -105.776 -22.7811 0.780778
rtibia 104.731
rfoot -11.7503 17.1885
rtoes 7.81548
lfemur 207.589 67.6198 287.48
ltibia 139.368
lfoot -20.8949 -58.1262
ltoes 11.0942
2673
root -3.39296 8.77186 -10.4306 912.362 -70.9413 -896.468
lowerback 32.3646 2.5561 -0.578231
upperback 12.7123 1.07348 -2.43616
thorax -3.14055 -0.120737 -2.704
lowerneck -11.772 5.03699 6.75887
upperneck 6.22717 6.07287 -4.35375
head 4.10766 2.9326 -1.98937
rclavicle -7.55382e-015 6.65929e-014
rhumerus -6.12876 -35.3401 -70.8891
rradius 20.5325
rwrist -1.77401
rhand -22.8915 -392.975
rfingers 7.12502
rthumb 3.5479 297.074
lclavicle -7.55382e-015 6.65929e-014
lhumerus 60.7817 7.44712 12.2567
lradius 54.5421
lwrist 16.2296
lhand -25.5352 -24.4206
lfingers 7.12502
lthumb 0.994682 5.55679
rfemur -105.127 -24.7108 -0.0119479
rtibia 107.156
rfoot -12.2988 17.8265
rtoes 5.63498
lfemur 197.545 69.8396 278.436
ltibia 140.896
lfoot -20.1606 -61.6055
ltoes 15.3088
2674
root -3.32747 8.54765 -10.5282 912.065 -72.6853 -898.09
lowerback 32.6125 2.65235 -0.218158
upperback 12.6234 1.33129 -2.43334
thorax -3.32556 0.0276168 -3.0026
lowerneck -11.9805 4.7427 6.47978
upperneck 7.03945 5.78281 -4.82083
head 4.3822 2.75597 -2.10097
rclavicle -1.27222e-014 2.3059e-014
rhumerus -3.82162 -36.0199 -70.7296
rradius 22.613
rwrist -3.28377
rhand -22.9418 -392.231
rfingers 7.12502
rthumb 3.4993 297.818
lclavicle -1.27222e-014 2.3059e-014
lhumerus 58.2986 8.15746 11.8344
lradius 54.867
lwrist 16.4341
lhand -25.9586 -24.8086
lfingers 7.12502
lthumb 0.585726 5.17034
rfemur -104.565 -26.6409 -0.7016
rtibia 109.403
rfoot -12.7843 18.5507
rtoes 3.8443
lfemur 186.403 71.3215 268.382
ltibia 142.3
lfoot -19.2217 -64.6823
ltoes 19.0642
2675
root -3.26782 8.33716 -10.6171 912.04 -74.1887 -899.89
lowerback 32.8526 2.83094 0.0602244
upperback 12.5448 1.66441 -2.4224
thorax -3.49045 0.206939 -3.27246
lowerneck -12.3146 4.49647 6.1515
upperneck 7.90452 5.57999 -5.40631
head 4.70111 2.6054 -2.23484
rclavicle -2.70347e-014 5.28767e-014
rhumerus -1.40848 -36.3459 -70.5767
rradius 24.7622
rwrist -4.73656
rhand -22.8864 -391.439
rfingers 7.12502
rthumb 3.55284 298.611
lclavicle -2.70347e-014 5.28767e-014
lhumerus 55.5834 8.85811 11.63
lradius 55.2399
lwrist 16.7424
lhand -26.1635 -25.138
lfingers 7.12502
lthumb 0.387855 4.84137
rfemur -104.106 -28.4871 -1.35468
rtibia 111.453
rfoot -13.2024 19.3096
rtoes 2.24589
lfemur 174.723 72.0764 257.832
ltibia 143.58
lfoot -17.7919 -67.3863
ltoes 22.3086
2676
root -3.21422 8.13849 -10.6979 912.409 -75.4373 -902.01
lowerback 33.492 3.09863 0.208805
upperback 12.1406 2.07236 -2.53273
thorax -3.68838 0.426198 -3.37918
lowerneck -12.6525 4.30904 5.79105
upperneck 8.6685 5.48639 -6.14375
head 5.00058 2.48996 -2.40577
rclavicle -1.63003e-014 -1.2921e-015
rhumerus 1.11063 -36.3337 -70.381
rradius 26.9069
rwrist -6.08821
rhand -22.8722 -390.549
rfingers 7.12502
rthumb 3.56648 299.501
lclavicle -1.63003e-014 -1.2921e-015
lhumerus 52.6516 9.51236 11.5884
lradius 55.6409
lwrist 17.1158
lhand -26.4024 -25.2787
lfingers 7.12502
lthumb 0.157068 4.70097
rfemur -103.742 -30.2179 -2.04287
rtibia 113.314
rfoot -13.5398 20.0906
rtoes 0.731431
lfemur 163.075 72.1851 247.303
ltibia 144.754
lfoot -15.925 -69.8162
ltoes 24.9126
2677
root -3.16543 7.95078 -10.7704 913.241 -76.4675 -904.53
lowerback 33.7467 3.42067 0.320142
upperback 12.1016 2.52027 -2.54432
thorax -3.79192 0.651537 -3.60135
lowerneck -12.8825 4.17457 5.39797
upperneck 9.18781 5.49237 -7.02427
head 5.21726 2.40837 -2.61318
rclavicle -8.32411e-015 2.54196e-014
rhumerus 3.72532 -35.9995 -70.1022
rradius 29.0004
rwrist -7.27296
rhand -22.8246 -389.721
rfingers 7.12502
rthumb 3.61244 300.33
lclavicle -8.32411e-015 2.54196e-014
lhumerus 49.5533 10.0774 11.6824
lradius 56.036
lwrist 17.4805
lhand -26.8585 -25.1726
lfingers 7.12502
lthumb -0.283443 4.80696
rfemur -103.446 -31.8312 -2.80374
rtibia 114.991
rfoot -13.7936 20.8641
rtoes -0.690786
lfemur 152.445 71.7792 237.773
ltibia 145.826
lfoot -13.9832 -71.9756
ltoes 27.148
2678
root -3.11953 7.7758 -10.8342 914.414 -77.3815 -907.337
lowerback 34.0277 3.74961 0.450666
upperback 12.1016 2.97479 -2.55701
thorax -3.85826 0.87843 -3.83875
lowerneck -12.9404 4.08803 5.03154
upperneck 9.38522 5.57626 -8.08507
head 5.31827 2.35506 -2.87971
rclavicle -2.36554e-014 -5.9039e-014
rhumerus 6.44447 -35.4025 -69.7238
rradius 30.9828
rwrist -8.17884
rhand -22.9333 -388.82
rfingers 7.12502
rthumb 3.50755 301.229
lclavicle -2.36554e-014 -5.9039e-014
lhumerus 46.3213 10.5131 11.9254
lradius 56.4372
lwrist 17.8623
lhand -27.5854 -24.7636
lfingers 7.12502
lthumb -0.985513 5.2139
rfemur -103.117 -33.3369 -3.64526
rtibia 116.483
rfoot -13.9565 21.6137
rtoes -1.81554
lfemur 143.786 71.1333 230.231
ltibia 146.775
lfoot -11.783 -73.8909
ltoes 28.3322
2679
root -3.07442 7.61583 -10.889 916 -78.2863 -910.511
lowerback 34.3313 4.03904 0.654886
upperback 12.1514 3.39657 -2.57344
thorax -3.87319 1.0905 -4.10935
lowerneck -12.8846 4.0351 4.71216
upperneck 9.36268 5.7018 -9.27852
head 5.34251 2.31826 -3.19465
rclavicle -5.62561e-014 1.39149e-015
rhumerus 9.26456 -34.6351 -69.2399
rradius 32.811
rwrist -8.75386
rhand -23.1442 -388.046
rfingers 7.12502
rthumb 3.3038 302
lclavicle -5.62561e-014 1.39149e-015
lhumerus 43.013 10.8107 12.3577
lradius 56.8454
lwrist 18.2572
lhand -28.4539 -24.2971
lfingers 7.12502
lthumb -1.82431 5.67481
rfemur -102.631 -34.7703 -4.6287
rtibia 117.782
rfoot -13.9999 22.355
rtoes -2.38569
lfemur 137.561 70.5862 225.098
ltibia 147.581
lfoot -8.89709 -75.5623
ltoes 28.6528
2680
root -3.02826 7.47298 -10.9348 918.202 -79.2093 -914.259
lowerback 34.6557 4.28414 0.916926
upperback 12.2518 3.7758 -2.59573
thorax -3.83572 1.28345 -4.40294
lowerneck -12.6614 4.01047 4.53149
upperneck 9.06801 5.84126 -10.6787
head 5.26904 2.29037 -3.59887
rclavicle -4.19436e-014 4.8901e-014
rhumerus 12.1432 -33.7502 -68.6246
rradius 34.4809
rwrist -9.03009
rhand -23.4363 -387.326
rfingers 7.12502
rthumb 3.02176 302.715
lclavicle -4.19436e-014 4.8901e-014
lhumerus 39.6333 10.9174 12.9882
lradius 57.3266
lwrist 18.8799
lhand -29.4042 -23.7066
lfingers 7.12502
lthumb -2.74204 6.25548
rfemur -101.908 -36.1129 -5.81362
rtibia 118.879
rfoot -13.9389 23.0747
rtoes -2.4436
lfemur 133.668 70.3905 222.192
ltibia 148.225
lfoot -4.7335 -76.9646
ltoes 28.3463
2681
root -2.98052 7.34753 -10.9729 921.178 -80.1325 -918.73
lowerback 34.9711 4.50308 1.21776
upperback 12.3988 4.13143 -2.62581
thorax -3.73857 1.46748 -4.71612
lowerneck -12.3618 4.00471 4.46766
upperneck 8.62626 5.97424 -12.2094
head 5.14848 2.26535 -4.06539
rclavicle 2.10712e-014 -9.14409e-015
rhumerus 14.992 -32.7478 -67.8269
rradius 36.0376
rwrist -9.23301
rhand -23.9097 -386.766
rfingers 7.12502
rthumb 2.56461 303.27
lclavicle 2.10712e-014 -9.14409e-015
lhumerus 36.22 10.8434 13.8835
lradius 57.8576
lwrist 19.6291
lhand -30.323 -23.2125
lfingers 7.12502
lthumb -3.62938 6.73639
rfemur -100.955 -37.3374 -7.1846
rtibia 119.792
rfoot -13.829 23.7483
rtoes -2.19548
lfemur 131.72 70.6069 221.091
ltibia 148.707
lfoot 1.30287 -78.0615
ltoes 27.8213
2682
root -2.9314 7.23844 -11.0056 925.183 -81.0188 -924.139
lowerback 35.2243 4.71941 1.51072
upperback 12.5795 4.48252 -2.65797
thorax -3.57866 1.65234 -5.02225
lowerneck -12.0308 4.00931 4.48544
upperneck 8.11632 6.09124 -13.8202
head 5.00989 2.23967 -4.57358
rclavicle 5.1684e-015 3.49861e-014
rhumerus 17.7181 -31.6248 -66.7957
rradius 37.5415
rwrist -9.53368
rhand -24.5801 -386.259
rfingers 7.12502
rthumb 1.9171 303.77
lclavicle 5.1684e-015 3.49861e-014
lhumerus 32.7861 10.5569 15.0392
lradius 58.4323
lwrist 20.5317
lhand -31.1345 -22.701
lfingers 7.12502
lthumb -4.41301 7.23301
rfemur -99.8519 -38.4449 -8.68736
rtibia 120.551
rfoot -13.7197 24.3629
rtoes -1.72829
lfemur 131.707 71.2201 221.763
ltibia 149.03
lfoot 9.37547 -78.694
ltoes 27.2934
